# xmcd
#
# Track frame offsets:
#	150
#	22937
#	44922
#	63495
#	82882
#	100545
#	118250
#	136750
#	154357
#	180407
#	195582
#	208317
#	225745
#	240702
#	258852
#
# Disc length: 3685 seconds
#
# Revision: 1
# Processed by: cddbd v1.5.1PL0 Copyright (c) Steve Scherf et al.
# Submitted via: CDex 1.50Beta5
#
DISCID=c90e630f
DTITLE=サーカス - TWINS〜SUPER BEST OF CIRCUS Disc 1
DYEAR=1997
DGENRE=
TTITLE0=ミッドナイト・フリーウェイ
TTITLE1=去りゆく夏
TTITLE2=ワンダフル・ミュージック
TTITLE3=二人だけ
TTITLE4=Mr.サマータイム
TTITLE5=ムービング
TTITLE6=モン・シェリー
TTITLE7=六月の花嫁
TTITLE8=恋はマジック
TTITLE9=経験
TTITLE10=ケッペキにいさん
TTITLE11=鏡の街
TTITLE12=愛はイエスタデイ
TTITLE13=夢で逢えたら
TTITLE14=夏の恋人
EXTD=
EXTT0=
EXTT1=
EXTT2=
EXTT3=
EXTT4=
EXTT5=
EXTT6=
EXTT7=
EXTT8=
EXTT9=
EXTT10=
EXTT11=
EXTT12=
EXTT13=
EXTT14=
PLAYORDER=
